<?xml version="1.0" encoding="iso-8859-1"?>
<!-- Generator: Adobe Illustrator 19.0.0, SVG Export Plug-In . SVG Version: 6.00 Build 0)  -->
<svg version="1.1" id="Capa_1" xmlns="http://www.w3.org/2000/svg" xmlns:xlink="http://www.w3.org/1999/xlink" x="0px" y="0px"
	 viewBox="0 0 512 512" style="enable-background:new 0 0 512 512;" xml:space="preserve">
<path style="fill:#0071BC;" d="M512,114.759v238.345c0,14.627-11.855,26.483-26.483,26.483s-26.483-11.855-26.483-26.483V114.759
	H512z"/>
<path style="fill:#CCCCCC;" d="M406.069,379.586V35.31c0-14.627,11.855-26.483,26.483-26.483s26.483,11.855,26.483,26.483v317.793
	c0,14.627,11.855,26.483,26.483,26.483H406.069z"/>
<path style="fill:#E6E6E6;" d="M406.069,459.034V35.31c0-14.627,11.855-26.483,26.483-26.483H114.759
	c-14.627,0-26.483,11.855-26.483,26.483v423.724l26.483,26.483l26.483-26.483l26.483,26.483l26.483-26.483l26.483,26.483
	l26.483-26.483l26.483,26.483l26.483-26.483l26.483,26.483l26.483-26.483l26.483,26.483L406.069,459.034z"/>
<g>
	<path style="fill:#999999;" d="M132.414,238.345h203.034V256H132.414V238.345z"/>
	<path style="fill:#999999;" d="M194.207,203.034h167.724v17.655H194.207V203.034z"/>
</g>
<path style="fill:#29ABE2;" d="M203.034,97.103v-1.289c-0.044-10.973-7.186-20.648-17.655-23.914V61.793h-17.655v10.108
	c-13.241,4.122-20.63,18.194-16.516,31.426c2.039,6.541,6.656,11.97,12.791,15.025l17.205,8.607
	c3.725,1.863,5.235,6.391,3.372,10.116c-1.271,2.551-3.884,4.167-6.735,4.167h-2.578c-4.158-0.009-7.53-3.381-7.539-7.539v-1.289
	h-17.655v1.289c0.044,10.973,7.186,20.648,17.655,23.914v10.108h17.655v-10.108c13.241-4.122,20.63-18.194,16.516-31.426
	c-2.039-6.541-6.656-11.97-12.791-15.025l-17.205-8.607c-3.725-1.863-5.235-6.391-3.372-10.116c1.271-2.551,3.884-4.167,6.735-4.167
	h2.578c4.158,0.009,7.53,3.381,7.539,7.539v1.289H203.034z"/>
<g>
	<path style="fill:#999999;" d="M344.276,61.793h17.655v17.655h-17.655V61.793z"/>
	<path style="fill:#999999;" d="M247.172,150.069h114.759v17.655H247.172V150.069z"/>
	<path style="fill:#999999;" d="M247.172,114.759h114.759v17.655H247.172V114.759z"/>
	<path style="fill:#999999;" d="M308.966,61.793h17.655v17.655h-17.655V61.793z"/>
	<path style="fill:#999999;" d="M158.897,203.034h17.655v17.655h-17.655V203.034z"/>
</g>
<path style="fill:#29ABE2;" d="M0,291.31h326.621v211.862H0V291.31z"/>
<path style="fill:#FBB03B;" d="M0,335.448h326.621v44.138H0V335.448z"/>
<g>
	<path style="fill:#80CAEC;" d="M203.034,414.897h17.655v17.655h-17.655V414.897z"/>
	<path style="fill:#80CAEC;" d="M238.345,414.897H256v17.655h-17.655V414.897z"/>
	<path style="fill:#80CAEC;" d="M273.655,414.897h17.655v17.655h-17.655V414.897z"/>
</g>
<g>
</g>
<g>
</g>
<g>
</g>
<g>
</g>
<g>
</g>
<g>
</g>
<g>
</g>
<g>
</g>
<g>
</g>
<g>
</g>
<g>
</g>
<g>
</g>
<g>
</g>
<g>
</g>
<g>
</g>
</svg>
